<svg xmlns="http://www.w3.org/2000/svg" viewBox="0 0 64 64" role="img" aria-label="PageGenie robot logo">
  <defs>
    <linearGradient id="bg" x1="8" y1="6" x2="56" y2="60" gradientUnits="userSpaceOnUse">
      <stop stop-color="#4f46e5"/>
      <stop offset="0.55" stop-color="#2563eb"/>
      <stop offset="1" stop-color="#10b981"/>
    </linearGradient>
    <linearGradient id="robot" x1="18" y1="18" x2="48" y2="51" gradientUnits="userSpaceOnUse">
      <stop stop-color="#ffffff"/>
      <stop offset="1" stop-color="#dbeafe"/>
    </linearGradient>
  </defs>
  <rect width="64" height="64" rx="18" fill="url(#bg)"/>
  <path d="M32 13v7" stroke="#dbeafe" stroke-width="3" stroke-linecap="round"/>
  <circle cx="32" cy="11" r="4" fill="#10b981" stroke="#ffffff" stroke-width="2.5"/>
  <rect x="16" y="20" width="32" height="29" rx="10" fill="url(#robot)" stroke="rgba(255,255,255,0.75)" stroke-width="1.6"/>
  <rect x="12" y="30" width="5" height="12" rx="2.5" fill="#bfdbfe"/>
  <rect x="47" y="30" width="5" height="12" rx="2.5" fill="#bfdbfe"/>
  <circle cx="25" cy="32" r="4" fill="#4f46e5"/>
  <circle cx="39" cy="32" r="4" fill="#4f46e5"/>
  <path d="M25 41c4.5 3.5 9.5 3.5 14 0" fill="none" stroke="#10b981" stroke-width="3" stroke-linecap="round"/>
  <rect x="22" y="51" width="20" height="4" rx="2" fill="#dbeafe" opacity="0.9"/>
  <path d="M48 18l1.5-4 1.5 4 4 1.5-4 1.5-1.5 4-1.5-4-4-1.5 4-1.5Z" fill="#ffffff" opacity="0.95"/>
</svg>
